HIERARCHY
ROOT Hips
{
  OFFSET 162.504 93.5283 38.9405
  CHANNELS 6 Xposition Yposition Zposition Zrotation Xrotation Yrotation
  JOINT Spine
  {
    OFFSET 0 6.79576 0
    CHANNELS 6 Xposition Yposition Zposition Zrotation Xrotation Yrotation
    JOINT Spine1
    {
      OFFSET 0 6.79575 0
      CHANNELS 6 Xposition Yposition Zposition Zrotation Xrotation Yrotation
      JOINT Spine2
      {
        OFFSET 0 6.79575 0
        CHANNELS 6 Xposition Yposition Zposition Zrotation Xrotation Yrotation
        JOINT Spine3
        {
          OFFSET 0 6.79575 0
          CHANNELS 6 Xposition Yposition Zposition Zrotation Xrotation Yrotation
          JOINT Neck
          {
            OFFSET 0.000724153 14.441 -0.000280182
            CHANNELS 6 Xposition Yposition Zposition Zrotation Xrotation Yrotation
            JOINT Head
            {
              OFFSET 0 9.17429 0
              CHANNELS 6 Xposition Yposition Zposition Zrotation Xrotation Yrotation
              End Site
              {
                OFFSET 0 17.2017 0
              }
            }
          }
          JOINT LeftShoulder
          {
            OFFSET 5.00086 16.9997 -0.00119088
            CHANNELS 6 Xposition Yposition Zposition Zrotation Xrotation Yrotation
            JOINT LeftShoulder2
            {
              OFFSET 6.5 0 0
              CHANNELS 6 Xposition Yposition Zposition Zrotation Xrotation Yrotation
              JOINT LeftArm
              {
                OFFSET 6.49999 -6.83546e-05 0.000520262
                CHANNELS 6 Xposition Yposition Zposition Zrotation Xrotation Yrotation
                JOINT LeftForeArm
                {
                  OFFSET 0 -37.9535 -2
                  CHANNELS 6 Xposition Yposition Zposition Zrotation Xrotation Yrotation
                  JOINT LeftHand
                  {
                    OFFSET 0 -30.0465 2.00001
                    CHANNELS 6 Xposition Yposition Zposition Zrotation Xrotation Yrotation
                    JOINT LeftHandThumb1
                    {
                      OFFSET -0.499998 -1.49999 2.65
                      CHANNELS 6 Xposition Yposition Zposition Zrotation Xrotation Yrotation
                      JOINT LeftHandThumb2
                      {
                        OFFSET 0 -3.80001 3.7
                        CHANNELS 6 Xposition Yposition Zposition Zrotation Xrotation Yrotation
                        JOINT LeftHandThumb3
                        {
                          OFFSET 0 -3 2.7
                          CHANNELS 6 Xposition Yposition Zposition Zrotation Xrotation Yrotation
                          End Site
                          {
                            OFFSET 0 -2.29999 1.8
                          }
                        }
                      }
                    }
                    JOINT LeftHandIndex
                    {
                      OFFSET 0 -1.90001 1.6
                      CHANNELS 6 Xposition Yposition Zposition Zrotation Xrotation Yrotation
                      JOINT LeftHandIndex1
                      {
                        OFFSET 0 -8.29999 1.9
                        CHANNELS 6 Xposition Yposition Zposition Zrotation Xrotation Yrotation
                        JOINT LeftHandIndex2
                        {
                          OFFSET 0 -4.5 0
                          CHANNELS 6 Xposition Yposition Zposition Zrotation Xrotation Yrotation
                          JOINT LeftHandIndex3
                          {
                            OFFSET 1.17535e-05 -3.4 0
                            CHANNELS 6 Xposition Yposition Zposition Zrotation Xrotation Yrotation
                            End Site
                            {
                              OFFSET -1.32239e-05 -2.6 0
                            }
                          }
                        }
                      }
                    }
                    JOINT LeftHandMiddle
                    {
                      OFFSET -0.249999 -2.20001 0.400001
                      CHANNELS 6 Xposition Yposition Zposition Zrotation Xrotation Yrotation
                      JOINT LeftHandMiddle1
                      {
                        OFFSET 0 -8.3 0.999999
                        CHANNELS 6 Xposition Yposition Zposition Zrotation Xrotation Yrotation
                        JOINT LeftHandMiddle2
                        {
                          OFFSET 0 -4.65 0
                          CHANNELS 6 Xposition Yposition Zposition Zrotation Xrotation Yrotation
                          JOINT LeftHandMiddle3
                          {
                            OFFSET 0 -3.3 0
                            CHANNELS 6 Xposition Yposition Zposition Zrotation Xrotation Yrotation
                            End Site
                            {
                              OFFSET 0 -2.69999 0
                            }
                          }
                        }
                      }
                    }
                    JOINT LeftHandRing
                    {
                      OFFSET -0.500003 -2.14999 -0.800001
                      CHANNELS 6 Xposition Yposition Zposition Zrotation Xrotation Yrotation
                      JOINT LeftHandRing1
                      {
                        OFFSET 0 -7.75 -0.200002
                        CHANNELS 6 Xposition Yposition Zposition Zrotation Xrotation Yrotation
                        JOINT LeftHandRing2
                        {
                          OFFSET 0 -3.8 0
                          CHANNELS 6 Xposition Yposition Zposition Zrotation Xrotation Yrotation
                          JOINT LeftHandRing3
                          {
                            OFFSET 0 -3.4 0
                            CHANNELS 6 Xposition Yposition Zposition Zrotation Xrotation Yrotation
                            End Site
                            {
                              OFFSET 0 -2.6 0
                            }
                          }
                        }
                      }
                    }
                    JOINT LeftHandPinky
                    {
                      OFFSET -0.750001 -1.75 -1.85
                      CHANNELS 6 Xposition Yposition Zposition Zrotation Xrotation Yrotation
                      JOINT LeftHandPinky1
                      {
                        OFFSET 0 -7.15 -0.999997
                        CHANNELS 6 Xposition Yposition Zposition Zrotation Xrotation Yrotation
                        JOINT LeftHandPinky2
                        {
                          OFFSET 0 -3.00001 0
                          CHANNELS 6 Xposition Yposition Zposition Zrotation Xrotation Yrotation
                          JOINT LeftHandPinky3
                          {
                            OFFSET 0 -2.35 0
                            CHANNELS 6 Xposition Yposition Zposition Zrotation Xrotation Yrotation
                            End Site
                            {
                              OFFSET 1.5034e-05 -2.1 0
                            }
                          }
                        }
                      }
                    }
                  }
                }
              }
            }
          }
          JOINT RightShoulder
          {
            OFFSET -4.99915 17.0003 0.00058007
            CHANNELS 6 Xposition Yposition Zposition Zrotation Xrotation Yrotation
            JOINT RightShoulder2
            {
              OFFSET -6.5 0 0
              CHANNELS 6 Xposition Yposition Zposition Zrotation Xrotation Yrotation
              JOINT RightArm
              {
                OFFSET -6.5 -0.000230881 -0.000174425
                CHANNELS 6 Xposition Yposition Zposition Zrotation Xrotation Yrotation
                JOINT RightForeArm
                {
                  OFFSET 0 -37.9535 -2
                  CHANNELS 6 Xposition Yposition Zposition Zrotation Xrotation Yrotation
                  JOINT RightHand
                  {
                    OFFSET 1.01187e-05 -30.0465 2.00001
                    CHANNELS 6 Xposition Yposition Zposition Zrotation Xrotation Yrotation
                    JOINT RightHandThumb1
                    {
                      OFFSET 0.499999 -1.50001 2.65
                      CHANNELS 6 Xposition Yposition Zposition Zrotation Xrotation Yrotation
                      JOINT RightHandThumb2
                      {
                        OFFSET 0 -3.8 3.7
                        CHANNELS 6 Xposition Yposition Zposition Zrotation Xrotation Yrotation
                        JOINT RightHandThumb3
                        {
                          OFFSET -1.24203e-05 -3 2.7
                          CHANNELS 6 Xposition Yposition Zposition Zrotation Xrotation Yrotation
                          End Site
                          {
                            OFFSET 0 -2.3 1.8
                          }
                        }
                      }
                    }
                    JOINT RightHandIndex
                    {
                      OFFSET 0 -1.9 1.6
                      CHANNELS 6 Xposition Yposition Zposition Zrotation Xrotation Yrotation
                      JOINT RightHandIndex1
                      {
                        OFFSET 0 -8.3 1.89999
                        CHANNELS 6 Xposition Yposition Zposition Zrotation Xrotation Yrotation
                        JOINT RightHandIndex2
                        {
                          OFFSET 0 -4.5 0
                          CHANNELS 6 Xposition Yposition Zposition Zrotation Xrotation Yrotation
                          JOINT RightHandIndex3
                          {
                            OFFSET 0 -3.4 0
                            CHANNELS 6 Xposition Yposition Zposition Zrotation Xrotation Yrotation
                            End Site
                            {
                              OFFSET 0 -2.6 0
                            }
                          }
                        }
                      }
                    }
                    JOINT RightHandMiddle
                    {
                      OFFSET 0.249993 -2.2 0.399997
                      CHANNELS 6 Xposition Yposition Zposition Zrotation Xrotation Yrotation
                      JOINT RightHandMiddle1
                      {
                        OFFSET 0 -8.30001 0.999999
                        CHANNELS 6 Xposition Yposition Zposition Zrotation Xrotation Yrotation
                        JOINT RightHandMiddle2
                        {
                          OFFSET 0 -4.65 0
                          CHANNELS 6 Xposition Yposition Zposition Zrotation Xrotation Yrotation
                          JOINT RightHandMiddle3
                          {
                            OFFSET -1.11e-05 -3.29999 0
                            CHANNELS 6 Xposition Yposition Zposition Zrotation Xrotation Yrotation
                            End Site
                            {
                              OFFSET 0 -2.7 0
                            }
                          }
                        }
                      }
                    }
                    JOINT RightHandRing
                    {
                      OFFSET 0.499999 -2.15 -0.800002
                      CHANNELS 6 Xposition Yposition Zposition Zrotation Xrotation Yrotation
                      JOINT RightHandRing1
                      {
                        OFFSET 0 -7.75 -0.200001
                        CHANNELS 6 Xposition Yposition Zposition Zrotation Xrotation Yrotation
                        JOINT RightHandRing2
                        {
                          OFFSET 0 -3.8 0
                          CHANNELS 6 Xposition Yposition Zposition Zrotation Xrotation Yrotation
                          JOINT RightHandRing3
                          {
                            OFFSET 0 -3.4 0
                            CHANNELS 6 Xposition Yposition Zposition Zrotation Xrotation Yrotation
                            End Site
                            {
                              OFFSET 0 -2.6 0
                            }
                          }
                        }
                      }
                    }
                    JOINT RightHandPinky
                    {
                      OFFSET 0.749997 -1.75 -1.85
                      CHANNELS 6 Xposition Yposition Zposition Zrotation Xrotation Yrotation
                      JOINT RightHandPinky1
                      {
                        OFFSET 0 -7.15 -1
                        CHANNELS 6 Xposition Yposition Zposition Zrotation Xrotation Yrotation
                        JOINT RightHandPinky2
                        {
                          OFFSET 0 -3 0
                          CHANNELS 6 Xposition Yposition Zposition Zrotation Xrotation Yrotation
                          JOINT RightHandPinky3
                          {
                            OFFSET 0 -2.35 0
                            CHANNELS 6 Xposition Yposition Zposition Zrotation Xrotation Yrotation
                            End Site
                            {
                              OFFSET 0 -2.1 0
                            }
                          }
                        }
                      }
                    }
                  }
                }
              }
            }
          }
        }
      }
    }
  }
  JOINT LeftUpLeg
  {
    OFFSET 10 0 0
    CHANNELS 6 Xposition Yposition Zposition Zrotation Xrotation Yrotation
    JOINT LeftLeg
    {
      OFFSET 0 -49.4477 -0.999997
      CHANNELS 6 Xposition Yposition Zposition Zrotation Xrotation Yrotation
      JOINT LeftFoot
      {
        OFFSET 0 -45.0523 -1.99999
        CHANNELS 6 Xposition Yposition Zposition Zrotation Xrotation Yrotation
        JOINT LeftToeBase
        {
          OFFSET 0 -7.5 12.5
          CHANNELS 6 Xposition Yposition Zposition Zrotation Xrotation Yrotation
          JOINT LeftFootToe
          {
            OFFSET 0 0 4
            CHANNELS 6 Xposition Yposition Zposition Zrotation Xrotation Yrotation
            End Site
            {
              OFFSET 0 0 0
            }
          }
        }
      }
    }
  }
  JOINT RightUpLeg
  {
    OFFSET -10 0 0
    CHANNELS 6 Xposition Yposition Zposition Zrotation Xrotation Yrotation
    JOINT RightLeg
    {
      OFFSET -1.52909e-05 -49.4477 -1.00001
      CHANNELS 6 Xposition Yposition Zposition Zrotation Xrotation Yrotation
      JOINT RightFoot
      {
        OFFSET 0 -45.0523 -2
        CHANNELS 6 Xposition Yposition Zposition Zrotation Xrotation Yrotation
        JOINT RightToeBase
        {
          OFFSET 0 -7.5 12.5
          CHANNELS 6 Xposition Yposition Zposition Zrotation Xrotation Yrotation
          JOINT RightFootToe
          {
            OFFSET 0 0 4
            CHANNELS 6 Xposition Yposition Zposition Zrotation Xrotation Yrotation
            End Site
            {
              OFFSET 0 0 0
            }
          }
        }
      }
    }
  }
}
MOTION
Frames:	3
Frame Time:	0.0111111
134.138 99.3843 -0.101186 -5.77856 12.8896 -6.51172 1.42109e-14 6.79575 -7.10543e-15 -3.66011 4.56632 11.109 1.42109e-14 6.79575 7.10543e-15 0.7637 4.81116 8.98754 -1.42109e-14 6.79575 3.55271e-15 -2.14738 6.03692 12.5922 2.84217e-14 6.79575 -7.10543e-15 -1.07056 9.80512 8.71131 0 14.441 3.55271e-15 -5.84569 1.78207 3.91355 0 9.17427 1.06581e-14 -13.8535 3.52116 9.41168 5 17 -8.88178e-15 0.321393 -0.00918072 -2.80568 6.5 0 8.88178e-15 0.321537 -0.0075984 -2.80609 6.5 0 -3.55271e-15 4.04394 -11.4656 0.409156 0 -37.9535 -2 139.093 -85.7518 144.714 -2.84217e-14 -30.0465 2 32.5924 -1.1207 -39.8214 -0.5 -1.5 2.65 7.54681 -7.85451 6.52675 -1.42109e-14 -3.8 3.7 0.0857008 -0.913901 -0.0207682 -1.42109e-14 -3 2.7 -0.0173528 2.68037 -0.0238571 2.84217e-14 -1.9 1.6 -2.12454e-06 4.81391e-06 -1.18067e-06 2.84217e-14 -8.3 1.9 -0.652475 -6.80818 0.00593823 2.84217e-14 -4.5 -7.10543e-15 -0.000372569 0.00565154 -1.6459e-06 0 -3.4 3.55271e-15 4.01642e-07 0.00557949 -1.48306e-06 -0.25 -2.2 0.4 -2.12454e-06 4.81391e-06 -1.18067e-06 0 -8.3 1 -4.41562 -6.03093 -0.169659 0 -4.65 7.10543e-15 -8.99413e-05 1.00334e-05 -1.97997e-07 0 -3.3 -3.55271e-15 -9.41844e-07 -4.83284e-06 -1.91613e-07 -0.5 -2.15 -0.8 -2.12454e-06 4.81391e-06 -1.18067e-06 0 -7.75 -0.2 -7.98596 1.47816 0.211597 0 -3.8 7.10543e-15 -2.21864e-06 5.15961e-06 2.89604e-06 0 -3.4 0 1.59028e-15 -1.59028e-14 3.18055e-15 -0.75 -1.75 -1.85 -2.12454e-06 4.81391e-06 -1.18067e-06 -2.84217e-14 -7.15 -1 -2.06996 -11.7302 0.0891024 0 -3 -1.77636e-15 -9.14983 -0.0754655 0.151249 0 -2.35 -1.77636e-15 -8.1348 -0.113638 0.00104272 -5 17 -2.4869e-14 -5.62253 -0.505306 10.2447 -6.5 0 7.10543e-15 -5.62777 -0.50606 10.246 -6.5 -2.84217e-14 0 -26.016 -56.1554 8.98296 -1.42109e-14 -37.9535 -2 -6.5376 -13.5363 2.66757 -7.10543e-15 -30.0465 2 -12.3612 -8.31598 51.141 0.5 -1.5 2.65 -3.82042 -2.62951 -1.3965 2.84217e-14 -3.8 3.7 0.194908 10.7861 -0.0341072 2.84217e-14 -3 2.7 0.0167671 -0.981019 0.000394479 2.84217e-14 -1.9 1.6 0 3.18055e-15 -0 0 -8.3 1.9 0.289036 -4.55371 0.0100953 2.84217e-14 -4.5 7.10543e-15 0.422132 -0.00776492 0.000543514 0 -3.4 7.10543e-15 0.419549 -0.00767571 -0.00972025 0.25 -2.2 0.4 0 3.18055e-15 -0 0 -8.3 1 1.82358 -2.68348 0.0324108 -2.84217e-14 -4.65 1.42109e-14 0.101437 0.00144755 -0.0720819 -2.84217e-14 -3.3 0 -0.00803622 -0.000580554 -0.0702256 0.5 -2.15 -0.8 0 3.18055e-15 -0 2.84217e-14 -7.75 -0.2 2.90234 -10.4677 0.0841703 0 -3.8 -7.10543e-15 0.058358 -0.0059416 -0.011867 0 -3.4 -7.10543e-15 1.27527e-05 -0.00588508 -0.0111915 0.75 -1.75 -1.85 0 3.18055e-15 -0 0 -7.15 -1 0.605155 -6.54762 -0.0549319 0 -3 0 0.00877082 0.00228274 0.0033121 0 -2.35 -1.42109e-14 0.00876993 0.00225376 0.00165755 10 0 0 8.91325 -48.1585 -0.592159 2.84217e-14 -49.4477 -1 -0.668825 48.3 -10.8443 5.68434e-14 -45.0523 -2 1.81888 -12.7543 23.391 0 -7.5 12.5 -4.83109e-07 -0.0048161 -4.97624e-06 0 8.88178e-16 4 3.32869 -3.50554 0.00299037 -10 0 0 -36.2025 -51.0632 -19.7416 7.10543e-15 -49.4477 -1 91.4281 78.8208 -104.957 -7.10543e-15 -45.0523 -2 5.03902 -2.58724 -0.543283 0 -7.5 12.5 5.15632e-10 -8.61221e-06 -0 -7.10543e-15 3.55271e-15 4 0.00433399 0.00301508 -0.00430302 
134.174 99.3826 0.00334284 -5.80825 12.81 -6.50949 2.84217e-14 6.79575 0 -3.59729 4.49103 11.111 -4.26326e-14 6.79575 0 0.757709 4.75797 8.96663 1.42109e-14 6.79575 3.55271e-15 -2.12691 6.00008 12.5552 1.42109e-14 6.79575 2.66454e-15 -1.06422 9.76634 8.67364 1.42109e-14 14.441 1.95399e-14 -5.84712 1.82538 4.05466 1.42109e-14 9.17427 -1.95399e-14 -13.8686 3.5993 9.74892 5 17 1.42109e-14 0.306984 -0.00883238 -2.74528 6.5 2.84217e-14 -1.24345e-14 0.306594 -0.00756545 -2.74314 6.5 0 7.10543e-15 4.1276 -11.1587 0.379349 2.84217e-14 -37.9535 -2 141.729 -85.8265 147.388 -2.84217e-14 -30.0465 2 32.5356 -1.09328 -39.8556 -0.5 -1.5 2.65 7.55175 -7.83679 6.57003 -2.84217e-14 -3.8 3.7 0.0861115 -0.914009 -0.0204877 2.84217e-14 -3 2.7 -0.0171109 2.69972 -0.023535 0 -1.9 1.6 -2.12454e-06 4.81391e-06 -1.18067e-06 0 -8.3 1.9 -0.651721 -6.79417 0.00589648 0 -4.5 3.55271e-15 -0.000372569 0.00565154 -1.6459e-06 -5.68434e-14 -3.4 -3.55271e-15 4.01642e-07 0.00557949 -1.48306e-06 -0.25 -2.2 0.4 -2.12454e-06 4.81391e-06 -1.18067e-06 -2.84217e-14 -8.3 1 -4.4283 -6.02143 -0.170037 0 -4.65 -3.55271e-15 -8.99413e-05 1.00334e-05 -1.97997e-07 -2.84217e-14 -3.3 -3.55271e-15 -9.41844e-07 -4.83284e-06 -1.91613e-07 -0.5 -2.15 -0.8 -2.12454e-06 4.81391e-06 -1.18067e-06 0 -7.75 -0.2 -7.98255 1.47322 0.212747 0 -3.8 0 -2.21864e-06 5.15961e-06 2.89604e-06 2.84217e-14 -3.4 0 -7.95139e-15 -6.36111e-15 -6.36111e-15 -0.75 -1.75 -1.85 -2.12454e-06 4.81391e-06 -1.18067e-06 0 -7.15 -1 -2.06303 -11.7115 0.0891165 0 -3 -7.10543e-15 -9.18564 -0.0747535 0.150899 2.84217e-14 -2.35 -3.55271e-15 -8.16325 -0.113304 0.00104272 -5 17 -1.77636e-15 -5.51571 -0.493741 10.1984 -6.5 2.84217e-14 1.77636e-15 -5.51669 -0.494097 10.1973 -6.5 0 0 -25.6281 -55.6817 9.21863 0 -37.9535 -2 -6.42718 -14.2977 2.2904 0 -30.0465 2 -12.3024 -7.80941 51.5461 0.5 -1.5 2.65 -3.83176 -2.61652 -1.47075 0 -3.8 3.7 0.191793 10.7173 -0.0339775 0 -3 2.7 0.0171937 -0.961296 0.000394476 0 -1.9 1.6 -0 0 6.36111e-15 0 -8.3 1.9 0.286412 -4.52606 0.0100962 0 -4.5 -1.42109e-14 0.398032 -0.00776492 0.000543514 0 -3.4 -1.42109e-14 0.395737 -0.00767571 -0.00972025 0.25 -2.2 0.4 -0 0 6.36111e-15 0 -8.3 1 1.77461 -2.6559 0.0307532 0 -4.65 0 0.101945 0.00144755 -0.0724702 0 -3.3 0 -0.00752462 -0.000580554 -0.0706069 0.5 -2.15 -0.8 -0 0 6.36111e-15 2.84217e-14 -7.75 -0.2 2.85548 -10.4336 0.0801167 -2.84217e-14 -3.8 1.42109e-14 0.058359 -0.0059416 -0.011867 2.84217e-14 -3.4 -7.10543e-15 1.1927e-05 -0.00588508 -0.0111915 0.75 -1.75 -1.85 -0 0 6.36111e-15 0 -7.15 -1 0.596361 -6.50166 -0.0548713 -2.84217e-14 -3 -7.10543e-15 0.00877082 0.00228274 0.0033121 2.84217e-14 -2.35 7.10543e-15 0.00876993 0.00225376 0.00165755 10 0 0 8.81801 -48.0876 -0.788872 -2.84217e-14 -49.4477 -1 -0.692085 48.3778 -10.8031 0 -45.0523 -2 1.8385 -12.8193 23.546 2.84217e-14 -7.5 12.5 -4.83111e-07 -0.00484257 -4.97624e-06 2.84217e-14 0 4 3.26756 -3.46262 0.00264454 -10 -1.42109e-14 0 -36.1437 -50.9147 -19.6784 -1.42109e-14 -49.4477 -1 91.5466 78.8443 -105.045 -1.42109e-14 -45.0523 -2 5.01687 -2.6326 -0.514616 -7.10543e-15 -7.5 12.5 5.15632e-10 -8.64071e-06 -6.36111e-15 0 0 4 0.00429819 0.00301856 -0.00424405 
134.21 99.3817 0.10874 -5.84201 12.7249 -6.51449 0 6.79575 0 -3.53264 4.41828 11.1139 1.42109e-14 6.79575 3.55271e-15 0.748888 4.69887 8.94491 2.84217e-14 6.79575 3.55271e-15 -2.10537 5.95972 12.511 1.42109e-14 6.79575 1.06581e-14 -1.05956 9.74022 8.63539 0 14.441 8.88178e-15 -5.84712 1.87698 4.22339 0 9.17427 -1.77636e-15 -13.8828 3.69242 10.1523 5 17 1.24345e-14 0.292153 -0.00849094 -2.68084 6.5 -2.84217e-14 1.77636e-15 0.292186 -0.00753262 -2.68085 6.5 0 3.55271e-15 4.20472 -10.8347 0.357984 -2.84217e-14 -37.9535 -2 144.357 -85.8785 150.044 -2.84217e-14 -30.0465 2 32.4809 -1.06074 -39.871 -0.5 -1.5 2.65 7.55682 -7.82316 6.60907 0 -3.8 3.7 0.0864628 -0.914117 -0.0202093 2.84217e-14 -3 2.7 -0.0168712 2.71081 -0.0232137 0 -1.9 1.6 -2.12454e-06 4.81391e-06 -1.18067e-06 2.84217e-14 -8.3 1.9 -0.650917 -6.78619 0.00585106 2.84217e-14 -4.5 -3.55271e-15 -0.000372569 0.00565154 -1.6459e-06 0 -3.4 0 4.01642e-07 0.00557949 -1.48306e-06 -0.25 -2.2 0.4 -2.12454e-06 4.81391e-06 -1.18067e-06 2.84217e-14 -8.3 1 -4.44002 -6.01321 -0.170394 -2.84217e-14 -4.65 1.77636e-14 -8.99413e-05 1.00334e-05 -1.97997e-07 -2.84217e-14 -3.3 3.55271e-15 -9.41844e-07 -4.83284e-06 -1.91613e-07 -0.5 -2.15 -0.8 -2.12454e-06 4.81391e-06 -1.18067e-06 2.84217e-14 -7.75 -0.2 -7.98304 1.46561 0.213799 2.84217e-14 -3.8 -1.42109e-14 -2.21864e-06 5.15961e-06 2.89604e-06 2.84217e-14 -3.4 7.10543e-15 -0 0 3.18055e-15 -0.75 -1.75 -1.85 -2.12454e-06 4.81391e-06 -1.18067e-06 -2.84217e-14 -7.15 -1 -2.05682 -11.6944 0.0891311 0 -3 -8.88178e-15 -9.21272 -0.0740351 0.150548 2.84217e-14 -2.35 3.55271e-15 -8.18478 -0.112971 0.00104272 -5 17 -8.88178e-15 -5.39054 -0.480336 10.1426 -6.5 0 3.55271e-15 -5.39059 -0.48066 10.1425 -6.5 0 0 -25.219 -55.1202 9.45485 7.10543e-15 -37.9535 -2 -6.27437 -15.2242 1.79248 0 -30.0465 2 -12.2724 -7.29593 51.9859 0.5 -1.5 2.65 -3.87261 -2.71594 -1.63648 0 -3.8 3.7 0.185323 10.6496 -0.0338496 0 -3 2.7 0.0176381 -0.917866 0.000394472 0 -1.9 1.6 -1.59028e-15 9.54166e-15 -3.18055e-15 0 -8.3 1.9 0.284784 -4.51077 0.0100959 0 -4.5 0 0.375751 -0.00776492 0.000543514 0 -3.4 1.42109e-14 0.373705 -0.00767571 -0.00972025 0.25 -2.2 0.4 -1.59028e-15 9.54166e-15 -3.18055e-15 0 -8.3 1 1.70585 -2.62334 0.028954 0 -4.65 1.42109e-14 0.102459 0.00144755 -0.0728587 0 -3.3 0 -0.00700637 -0.000580554 -0.070989 0.5 -2.15 -0.8 -1.59028e-15 9.54166e-15 -3.18055e-15 0 -7.75 -0.2 2.80583 -10.4127 0.0756674 0 -3.8 -1.42109e-14 0.05836 -0.0059416 -0.011867 0 -3.4 1.42109e-14 1.10869e-05 -0.00588508 -0.0111915 0.75 -1.75 -1.85 -1.59028e-15 9.54166e-15 -3.18055e-15 0 -7.15 -1 0.589868 -6.46723 -0.0548103 0 -3 -2.13163e-14 0.00877082 0.00228274 0.0033121 0 -2.35 7.10543e-15 0.00876993 0.00225376 0.00165755 10 -1.42109e-14 -7.10543e-15 8.73256 -48.0083 -0.97831 0 -49.4477 -1 -0.715197 48.4561 -10.7627 0 -45.0523 -2 1.85783 -12.8862 23.6957 2.84217e-14 -7.5 12.5 -4.83113e-07 -0.0048692 -4.97624e-06 -2.84217e-14 0 4 3.20339 -3.41935 -0.0232544 -10 -1.42109e-14 0 -36.0798 -50.7678 -19.6169 -7.10543e-15 -49.4477 -1 91.6781 78.8673 -105.146 -7.10543e-15 -45.0523 -2 4.99052 -2.67727 -0.488545 7.10543e-15 -7.5 12.5 5.15632e-10 -8.6691e-06 3.18055e-15 -7.10543e-15 -3.55271e-15 4 0.00425581 0.00302207 -0.00418397 
